<mxfile host="app.diagrams.net" agent="Mozilla/5.0 (Macintosh; Intel Mac OS X 10_15_7) AppleWebKit/537.36 (KHTML, like Gecko) Chrome/131.0.0.0 Safari/537.36" version="24.8.6">
  <diagram name="Page-1" id="mjYsmp0MJH42ShdmBNGu">
    <mxGraphModel dx="1194" dy="535" grid="1" gridSize="10" guides="1" tooltips="1" connect="1" arrows="1" fold="1" page="1" pageScale="1" pageWidth="850" pageHeight="1100" math="0" shadow="0">
      <root>
        <mxCell id="0" />
        <mxCell id="1" parent="0" />
        <mxCell id="0ECU7l1hAycFRVOm7Qvq-11" value="&lt;font style=&quot;font-size: 11px;&quot;&gt;:GuidanceHubApp&lt;/font&gt;" style="shape=umlLifeline;perimeter=lifelinePerimeter;whiteSpace=wrap;html=1;container=1;dropTarget=0;collapsible=0;recursiveResize=0;outlineConnect=0;portConstraint=eastwest;newEdgeStyle={&quot;curved&quot;:0,&quot;rounded&quot;:0};" vertex="1" parent="1">
          <mxGeometry x="240" y="40" width="100" height="330" as="geometry" />
        </mxCell>
        <mxCell id="0ECU7l1hAycFRVOm7Qvq-22" value="" style="html=1;points=[[0,0,0,0,5],[0,1,0,0,-5],[1,0,0,0,5],[1,1,0,0,-5]];perimeter=orthogonalPerimeter;outlineConnect=0;targetShapes=umlLifeline;portConstraint=eastwest;newEdgeStyle={&quot;curved&quot;:0,&quot;rounded&quot;:0};" vertex="1" parent="0ECU7l1hAycFRVOm7Qvq-11">
          <mxGeometry x="45" y="50" width="10" height="270" as="geometry" />
        </mxCell>
        <mxCell id="0ECU7l1hAycFRVOm7Qvq-12" value=":Authenticator" style="shape=umlLifeline;perimeter=lifelinePerimeter;whiteSpace=wrap;html=1;container=1;dropTarget=0;collapsible=0;recursiveResize=0;outlineConnect=0;portConstraint=eastwest;newEdgeStyle={&quot;curved&quot;:0,&quot;rounded&quot;:0};" vertex="1" parent="1">
          <mxGeometry x="440" y="40" width="100" height="300" as="geometry" />
        </mxCell>
        <mxCell id="0ECU7l1hAycFRVOm7Qvq-26" value="" style="html=1;points=[[0,0,0,0,5],[0,1,0,0,-5],[1,0,0,0,5],[1,1,0,0,-5]];perimeter=orthogonalPerimeter;outlineConnect=0;targetShapes=umlLifeline;portConstraint=eastwest;newEdgeStyle={&quot;curved&quot;:0,&quot;rounded&quot;:0};" vertex="1" parent="0ECU7l1hAycFRVOm7Qvq-12">
          <mxGeometry x="45" y="70" width="10" height="50" as="geometry" />
        </mxCell>
        <mxCell id="0ECU7l1hAycFRVOm7Qvq-13" value=":Student&amp;nbsp;" style="shape=umlLifeline;perimeter=lifelinePerimeter;whiteSpace=wrap;html=1;container=1;dropTarget=0;collapsible=0;recursiveResize=0;outlineConnect=0;portConstraint=eastwest;newEdgeStyle={&quot;curved&quot;:0,&quot;rounded&quot;:0};" vertex="1" parent="1">
          <mxGeometry x="630" y="40" width="100" height="330" as="geometry" />
        </mxCell>
        <mxCell id="0ECU7l1hAycFRVOm7Qvq-36" value="" style="html=1;points=[[0,0,0,0,5],[0,1,0,0,-5],[1,0,0,0,5],[1,1,0,0,-5]];perimeter=orthogonalPerimeter;outlineConnect=0;targetShapes=umlLifeline;portConstraint=eastwest;newEdgeStyle={&quot;curved&quot;:0,&quot;rounded&quot;:0};" vertex="1" parent="0ECU7l1hAycFRVOm7Qvq-13">
          <mxGeometry x="45" y="140" width="10" height="50" as="geometry" />
        </mxCell>
        <mxCell id="0ECU7l1hAycFRVOm7Qvq-42" value="" style="html=1;points=[[0,0,0,0,5],[0,1,0,0,-5],[1,0,0,0,5],[1,1,0,0,-5]];perimeter=orthogonalPerimeter;outlineConnect=0;targetShapes=umlLifeline;portConstraint=eastwest;newEdgeStyle={&quot;curved&quot;:0,&quot;rounded&quot;:0};" vertex="1" parent="0ECU7l1hAycFRVOm7Qvq-13">
          <mxGeometry x="45" y="220" width="10" height="80" as="geometry" />
        </mxCell>
        <mxCell id="0ECU7l1hAycFRVOm7Qvq-14" value="&lt;font style=&quot;font-size: 8px;&quot;&gt;Student&lt;/font&gt;" style="shape=umlLifeline;perimeter=lifelinePerimeter;whiteSpace=wrap;html=1;container=1;dropTarget=0;collapsible=0;recursiveResize=0;outlineConnect=0;portConstraint=eastwest;newEdgeStyle={&quot;curved&quot;:0,&quot;rounded&quot;:0};participant=umlActor;" vertex="1" parent="1">
          <mxGeometry x="70" y="40" width="20" height="300" as="geometry" />
        </mxCell>
        <mxCell id="0ECU7l1hAycFRVOm7Qvq-27" value="HandleLogin()" style="html=1;verticalAlign=bottom;endArrow=block;curved=0;rounded=0;entryX=0;entryY=0;entryDx=0;entryDy=5;" edge="1" target="0ECU7l1hAycFRVOm7Qvq-26" parent="1" source="0ECU7l1hAycFRVOm7Qvq-11">
          <mxGeometry relative="1" as="geometry">
            <mxPoint x="320" y="125" as="sourcePoint" />
          </mxGeometry>
        </mxCell>
        <mxCell id="0ECU7l1hAycFRVOm7Qvq-28" value="LoginSucess()" style="html=1;verticalAlign=bottom;endArrow=open;dashed=1;endSize=8;curved=0;rounded=0;exitX=0;exitY=1;exitDx=0;exitDy=-5;" edge="1" parent="1">
          <mxGeometry relative="1" as="geometry">
            <mxPoint x="295" y="150" as="targetPoint" />
            <mxPoint x="485" y="150" as="sourcePoint" />
          </mxGeometry>
        </mxCell>
        <mxCell id="0ECU7l1hAycFRVOm7Qvq-37" value="DisplayMenu" style="html=1;verticalAlign=bottom;endArrow=block;curved=0;rounded=0;entryX=0;entryY=0;entryDx=0;entryDy=5;" edge="1" target="0ECU7l1hAycFRVOm7Qvq-36" parent="1" source="0ECU7l1hAycFRVOm7Qvq-11">
          <mxGeometry relative="1" as="geometry">
            <mxPoint x="310" y="205" as="sourcePoint" />
          </mxGeometry>
        </mxCell>
        <mxCell id="0ECU7l1hAycFRVOm7Qvq-38" value="return" style="html=1;verticalAlign=bottom;endArrow=open;dashed=1;endSize=8;curved=0;rounded=0;" edge="1" source="0ECU7l1hAycFRVOm7Qvq-36" parent="1">
          <mxGeometry relative="1" as="geometry">
            <mxPoint x="290" y="220" as="targetPoint" />
            <mxPoint x="360" y="220" as="sourcePoint" />
          </mxGeometry>
        </mxCell>
        <mxCell id="0ECU7l1hAycFRVOm7Qvq-39" value="Login" style="html=1;verticalAlign=bottom;endArrow=block;curved=0;rounded=0;" edge="1" parent="1" target="0ECU7l1hAycFRVOm7Qvq-11">
          <mxGeometry width="80" relative="1" as="geometry">
            <mxPoint x="80" y="100" as="sourcePoint" />
            <mxPoint x="160" y="100" as="targetPoint" />
          </mxGeometry>
        </mxCell>
        <mxCell id="0ECU7l1hAycFRVOm7Qvq-40" value="SendMessage()" style="html=1;verticalAlign=bottom;endArrow=block;curved=0;rounded=0;" edge="1" parent="1" target="0ECU7l1hAycFRVOm7Qvq-11">
          <mxGeometry x="0.0024" width="80" relative="1" as="geometry">
            <mxPoint x="80" y="250" as="sourcePoint" />
            <mxPoint x="160" y="250" as="targetPoint" />
            <mxPoint as="offset" />
          </mxGeometry>
        </mxCell>
        <mxCell id="0ECU7l1hAycFRVOm7Qvq-43" value="SendMessage()" style="html=1;verticalAlign=bottom;endArrow=block;curved=0;rounded=0;entryX=0;entryY=0;entryDx=0;entryDy=5;" edge="1" target="0ECU7l1hAycFRVOm7Qvq-42" parent="1">
          <mxGeometry relative="1" as="geometry">
            <mxPoint x="290" y="265" as="sourcePoint" />
          </mxGeometry>
        </mxCell>
        <mxCell id="0ECU7l1hAycFRVOm7Qvq-44" value="return" style="html=1;verticalAlign=bottom;endArrow=open;dashed=1;endSize=8;curved=0;rounded=0;exitX=0;exitY=1;exitDx=0;exitDy=-5;" edge="1" source="0ECU7l1hAycFRVOm7Qvq-42" parent="1">
          <mxGeometry relative="1" as="geometry">
            <mxPoint x="290" y="335" as="targetPoint" />
          </mxGeometry>
        </mxCell>
      </root>
    </mxGraphModel>
  </diagram>
</mxfile>
